<?xml version="1.0" encoding="utf-8"?>
<!-- Generator: Adobe Illustrator 24.0.1, SVG Export Plug-In . SVG Version: 6.00 Build 0)  -->
<svg version="1.1" id="Calque_1" xmlns="http://www.w3.org/2000/svg" xmlns:xlink="http://www.w3.org/1999/xlink" x="0px" y="0px"
	 viewBox="0 0 1342 156" style="enable-background:new 0 0 1342 156;" xml:space="preserve">
<style type="text/css">
	.st0{fill:#E2554B;}
</style>
<g>
	<g>
		<path d="M102.02,24.49c-0.36,4-0.6,7.86-0.73,11.59c-0.13,3.73-0.2,6.62-0.2,8.66c0,2.04,0.04,3.93,0.13,5.66
			c0.09,1.73,0.18,3.22,0.27,4.46h-3.06c-1.16-6.93-2.75-12.37-4.8-16.33c-2.04-3.95-4.55-6.77-7.53-8.46
			c-2.98-1.69-6.51-2.53-10.59-2.53h-4.4c-2.58,0-4.53,0.22-5.86,0.67c-1.33,0.45-2.22,1.33-2.67,2.67
			c-0.45,1.33-0.67,3.38-0.67,6.13v66.9c0,3.46,0.35,6.04,1.07,7.73c0.71,1.69,2.09,2.8,4.13,3.33c2.04,0.53,5.06,0.85,9.06,0.93
			v2.93c-2.75-0.09-6.31-0.18-10.66-0.27c-4.35-0.09-8.93-0.13-13.73-0.13c-3.82,0-7.55,0.05-11.19,0.13
			c-3.64,0.09-6.93,0.18-9.86,0.27v-2.67c2.84-0.18,4.97-0.53,6.4-1.07c1.42-0.53,2.38-1.6,2.87-3.2c0.49-1.6,0.73-4,0.73-7.2v-66.1
			c0-3.29-0.25-5.71-0.73-7.26c-0.49-1.55-1.47-2.62-2.93-3.2c-1.47-0.58-3.58-0.91-6.33-1v-2.67c4.8,0.09,9.99,0.18,15.59,0.27
			c5.6,0.09,10.88,0.13,15.86,0.13c4.97,0,8.97,0,11.99,0c4.09,0,8.73-0.02,13.93-0.07C93.29,24.78,97.93,24.67,102.02,24.49z
			 M82.16,70.6v2.67H57.91V70.6H82.16z M85.5,53.01c-0.36,5.06-0.51,8.93-0.47,11.59c0.04,2.67,0.07,5.11,0.07,7.33
			c0,2.22,0.04,4.66,0.13,7.33c0.09,2.67,0.31,6.53,0.67,11.59h-3.06c-0.53-3.11-1.38-6-2.53-8.66c-1.16-2.67-2.84-4.82-5.06-6.46
			c-2.22-1.64-5.11-2.47-8.66-2.47V70.6c3.55,0,6.4-0.98,8.53-2.93c2.13-1.95,3.75-4.29,4.86-7c1.11-2.71,1.93-5.26,2.47-7.66H85.5z
			"/>
		<path d="M142.67,48.08c6.48,0,12.17,1.2,17.06,3.6c4.88,2.4,8.71,6.26,11.46,11.59c2.75,5.33,4.13,12.39,4.13,21.19
			c0,8.8-1.38,15.84-4.13,21.12c-2.75,5.29-6.58,9.13-11.46,11.53c-4.89,2.4-10.57,3.6-17.06,3.6c-6.31,0-11.93-1.2-16.86-3.6
			c-4.93-2.4-8.8-6.24-11.59-11.53c-2.8-5.28-4.2-12.33-4.2-21.12c0-8.8,1.4-15.86,4.2-21.19c2.8-5.33,6.66-9.2,11.59-11.59
			C130.74,49.28,136.36,48.08,142.67,48.08z M142.67,50.75c-3.55,0-6.53,2.64-8.93,7.93c-2.4,5.29-3.6,13.88-3.6,25.79
			c0,11.91,1.2,20.48,3.6,25.72c2.4,5.24,5.37,7.86,8.93,7.86c3.64,0,6.64-2.62,9-7.86c2.35-5.24,3.53-13.81,3.53-25.72
			c0-11.9-1.18-20.5-3.53-25.79C149.31,53.39,146.31,50.75,142.67,50.75z"/>
		<path d="M233.15,48.08c3.73,0,6.77,0.47,9.13,1.4c2.35,0.93,4.2,2.2,5.53,3.8c1.42,1.69,2.47,3.86,3.13,6.53
			c0.67,2.67,1,6.26,1,10.79v35.85c0,3.73,0.64,6.26,1.93,7.6c1.29,1.33,3.49,2,6.6,2v2.8c-1.69-0.09-4.22-0.2-7.6-0.33
			c-3.38-0.13-6.71-0.2-9.99-0.2c-3.38,0-6.69,0.07-9.93,0.2c-3.24,0.13-5.71,0.25-7.4,0.33v-2.8c2.67,0,4.53-0.67,5.6-2
			c1.07-1.33,1.6-3.86,1.6-7.6V65.01c0-2.22-0.22-4.15-0.67-5.8c-0.45-1.64-1.25-2.93-2.4-3.86c-1.16-0.93-2.89-1.4-5.2-1.4
			c-3.73,0-6.86,1.47-9.4,4.4c-2.53,2.93-3.8,6.62-3.8,11.06v37.05c0,3.73,0.55,6.26,1.67,7.6c1.11,1.33,2.95,2,5.53,2v2.8
			c-1.6-0.09-3.93-0.2-7-0.33c-3.06-0.13-6.24-0.2-9.53-0.2c-3.38,0-6.84,0.07-10.4,0.2c-3.55,0.13-6.22,0.25-8,0.33v-2.8
			c3.11,0,5.31-0.67,6.6-2c1.29-1.33,1.93-3.86,1.93-7.6V64.47c0-4-0.6-6.95-1.8-8.86c-1.2-1.91-3.44-2.87-6.73-2.87v-2.8
			c2.84,0.27,5.6,0.4,8.26,0.4c3.73,0,7.22-0.15,10.46-0.47c3.24-0.31,6.24-0.78,9-1.4v11.99c2.22-4.53,5.24-7.73,9.06-9.6
			C224.18,49.01,228.44,48.08,233.15,48.08z"/>
		<path d="M292.46,28.09v21.86h15.73v2.67h-15.73v53.84c0,2.67,0.49,4.55,1.47,5.66c0.98,1.11,2.44,1.67,4.4,1.67
			c1.6,0,3.2-0.6,4.8-1.8s3.02-3.27,4.26-6.2l2.27,1.2c-1.42,4-3.58,7.29-6.46,9.86c-2.89,2.58-6.82,3.86-11.79,3.86
			c-2.93,0-5.51-0.38-7.73-1.13c-2.22-0.75-4.09-1.89-5.6-3.4c-1.96-1.95-3.24-4.37-3.86-7.26c-0.62-2.89-0.93-6.64-0.93-11.26
			V52.61h-11.19v-2.67h11.19V32.36c3.73,0,7.17-0.33,10.33-1C286.75,30.69,289.7,29.6,292.46,28.09z"/>
		<path d="M346.7,48.08c7.82,0,13.95,2.31,18.39,6.93c4.44,4.62,6.66,12.17,6.66,22.66H327.9l-0.27-2.53h27.32
			c0.09-4.35-0.18-8.37-0.8-12.06c-0.62-3.69-1.6-6.64-2.93-8.86c-1.33-2.22-3.11-3.33-5.33-3.33c-3.11,0-5.75,1.96-7.93,5.86
			c-2.18,3.91-3.49,10.4-3.93,19.46l0.4,0.8c-0.09,1.07-0.16,2.18-0.2,3.33c-0.05,1.16-0.07,2.35-0.07,3.6
			c0,6.13,0.87,11.11,2.6,14.93c1.73,3.82,3.93,6.6,6.6,8.33c2.67,1.73,5.37,2.6,8.13,2.6c2.67,0,5.57-0.67,8.73-2
			c3.15-1.33,6.11-4.22,8.86-8.66l2.4,0.8c-1.07,3.38-2.75,6.66-5.06,9.86c-2.31,3.2-5.24,5.82-8.8,7.86
			c-3.55,2.04-7.82,3.06-12.79,3.06c-6.04,0-11.37-1.29-15.99-3.86c-4.62-2.58-8.24-6.48-10.86-11.73
			c-2.62-5.24-3.93-11.9-3.93-19.99c0-8.26,1.4-15.15,4.2-20.66c2.8-5.51,6.66-9.62,11.59-12.33
			C334.77,49.44,340.39,48.08,346.7,48.08z"/>
		<path d="M429.05,48.08c3.73,0,6.77,0.47,9.13,1.4c2.35,0.93,4.2,2.2,5.53,3.8c1.42,1.69,2.47,3.86,3.13,6.53
			c0.67,2.67,1,6.26,1,10.79v35.85c0,3.73,0.64,6.26,1.93,7.6c1.29,1.33,3.49,2,6.6,2v2.8c-1.69-0.09-4.22-0.2-7.6-0.33
			c-3.38-0.13-6.71-0.2-9.99-0.2c-3.38,0-6.69,0.07-9.93,0.2c-3.24,0.13-5.71,0.25-7.4,0.33v-2.8c2.67,0,4.53-0.67,5.6-2
			c1.07-1.33,1.6-3.86,1.6-7.6V65.01c0-2.22-0.22-4.15-0.67-5.8c-0.45-1.64-1.25-2.93-2.4-3.86c-1.16-0.93-2.89-1.4-5.2-1.4
			c-3.73,0-6.86,1.47-9.4,4.4c-2.53,2.93-3.8,6.62-3.8,11.06v37.05c0,3.73,0.55,6.26,1.67,7.6c1.11,1.33,2.95,2,5.53,2v2.8
			c-1.6-0.09-3.93-0.2-7-0.33c-3.06-0.13-6.24-0.2-9.53-0.2c-3.38,0-6.84,0.07-10.4,0.2c-3.55,0.13-6.22,0.25-8,0.33v-2.8
			c3.11,0,5.31-0.67,6.6-2c1.29-1.33,1.93-3.86,1.93-7.6V64.47c0-4-0.6-6.95-1.8-8.86c-1.2-1.91-3.44-2.87-6.73-2.87v-2.8
			c2.84,0.27,5.6,0.4,8.26,0.4c3.73,0,7.22-0.15,10.46-0.47c3.24-0.31,6.24-0.78,9-1.4v11.99c2.22-4.53,5.24-7.73,9.06-9.6
			C420.08,49.01,424.34,48.08,429.05,48.08z"/>
		<path d="M478.9,119.78c-5.95,0-10.26-1.55-12.93-4.66c-2.67-3.11-4-6.88-4-11.33c0-3.82,0.87-6.93,2.6-9.33
			c1.73-2.4,3.98-4.38,6.73-5.93c2.75-1.55,5.66-2.84,8.73-3.86c3.07-1.02,6-2.04,8.8-3.06c2.8-1.02,5.06-2.2,6.8-3.53
			s2.6-3.02,2.6-5.06v-10.4c0-2.31-0.38-4.38-1.13-6.2c-0.76-1.82-1.91-3.22-3.46-4.2c-1.56-0.98-3.58-1.47-6.06-1.47
			c-1.78,0-3.55,0.25-5.33,0.73c-1.78,0.49-3.24,1.31-4.4,2.47c2.49,0.89,4.42,2.24,5.8,4.06c1.38,1.82,2.07,3.89,2.07,6.2
			c0,3.02-1.05,5.42-3.13,7.2c-2.09,1.78-4.55,2.67-7.4,2.67c-3.2,0-5.62-1-7.26-3c-1.65-2-2.47-4.42-2.47-7.26
			c0-2.58,0.64-4.71,1.93-6.4c1.29-1.69,3.09-3.29,5.4-4.8c2.49-1.42,5.48-2.53,9-3.33c3.51-0.8,7.31-1.2,11.39-1.2
			c4.09,0,7.77,0.42,11.06,1.27c3.29,0.85,6.04,2.38,8.26,4.6c2.04,2.04,3.38,4.55,4,7.53c0.62,2.98,0.93,6.73,0.93,11.26v36.25
			c0,2.13,0.22,3.64,0.67,4.53c0.44,0.89,1.2,1.33,2.27,1.33c0.89,0,1.73-0.22,2.53-0.67c0.8-0.44,1.55-0.98,2.27-1.6l1.33,2.27
			c-1.87,1.6-4.02,2.82-6.46,3.67c-2.44,0.84-5.18,1.27-8.2,1.27c-5.33,0-8.86-1.09-10.59-3.27c-1.73-2.18-2.64-4.69-2.73-7.53
			c-2.22,3.64-4.95,6.35-8.2,8.13C487.05,118.89,483.25,119.78,478.9,119.78z M489.16,111.25c1.69,0,3.27-0.4,4.73-1.2
			c1.47-0.8,2.91-2.22,4.33-4.26V78.47c-1.07,1.78-2.55,3.27-4.46,4.46c-1.91,1.2-3.86,2.49-5.86,3.86c-2,1.38-3.67,3.13-5,5.26
			s-2,4.98-2,8.53c0,3.82,0.8,6.55,2.4,8.2C484.89,110.43,486.85,111.25,489.16,111.25z"/>
		<path d="M595.5,49.95v2.67c-1.69,0.45-3.29,1.49-4.8,3.13c-1.51,1.65-2.98,4.42-4.4,8.33l-18.79,52.77l-4.93,9.33l-29.05-65.97
			c-1.51-3.46-3-5.57-4.46-6.33c-1.47-0.75-2.73-1.13-3.8-1.13v-2.8c2.93,0.27,5.97,0.47,9.13,0.6c3.15,0.13,6.2,0.2,9.13,0.2
			c3.64,0,6.97-0.09,10-0.27c3.02-0.18,5.86-0.35,8.53-0.53v2.8c-1.78,0-3.44,0.11-5,0.33c-1.56,0.22-2.62,0.85-3.2,1.87
			c-0.58,1.02-0.33,2.78,0.73,5.26l16.79,40.51l-1.2,0.8l9.86-27.59c2.49-7.2,2.89-12.46,1.2-15.79c-1.69-3.33-4.66-5.17-8.93-5.53
			v-2.67c2.04,0.09,4.26,0.18,6.66,0.27c2.4,0.09,4.49,0.13,6.26,0.13c1.78,0,3.64-0.04,5.6-0.13
			C592.79,50.13,594.35,50.04,595.5,49.95z M567.52,116.85l-5.06,14.26c-1.69,4.53-3.64,7.68-5.86,9.46
			c-1.25,1.07-2.84,1.89-4.8,2.47c-1.96,0.58-4.22,0.87-6.8,0.87c-2.13,0-4.33-0.36-6.6-1.07c-2.27-0.71-4.15-1.87-5.66-3.47
			c-1.51-1.6-2.27-3.64-2.27-6.13c0-2.75,0.98-4.95,2.93-6.6c1.95-1.65,4.53-2.47,7.73-2.47c2.93,0,5.33,0.71,7.2,2.13
			c1.87,1.42,2.8,3.51,2.8,6.26c0,1.78-0.56,3.46-1.67,5.06c-1.11,1.6-2.78,2.8-5,3.6c0.44,0.09,0.98,0.13,1.6,0.13
			c0.62,0,1.11,0,1.47,0c2.67,0,5.02-0.85,7.06-2.53c2.04-1.69,3.73-4.35,5.06-8l4.66-13.73L567.52,116.85z"/>
		<path class="st0" d="M673.06,24.49v2.67c-2.84,0.09-5,0.42-6.46,1c-1.47,0.58-2.42,1.65-2.87,3.2c-0.45,1.56-0.67,3.98-0.67,7.26
			v66.1c0,3.2,0.24,5.6,0.73,7.2c0.49,1.6,1.47,2.67,2.93,3.2c1.47,0.53,3.58,0.89,6.33,1.07v2.67c-2.4-0.18-5.42-0.29-9.06-0.33
			c-3.64-0.04-7.33-0.07-11.06-0.07c-4.26,0-8.26,0.02-11.99,0.07c-3.73,0.05-6.75,0.16-9.06,0.33v-2.67
			c2.84-0.18,4.97-0.53,6.4-1.07c1.42-0.53,2.38-1.6,2.87-3.2c0.49-1.6,0.73-4,0.73-7.2v-66.1c0-3.29-0.25-5.71-0.73-7.26
			c-0.49-1.55-1.47-2.62-2.93-3.2c-1.47-0.58-3.58-0.91-6.33-1v-2.67c2.31,0.09,5.33,0.18,9.06,0.27c3.73,0.09,7.73,0.13,11.99,0.13
			c3.73,0,7.42-0.04,11.06-0.13C667.64,24.67,670.66,24.58,673.06,24.49z"/>
		<path class="st0" d="M729.03,48.08c3.73,0,6.75,0.47,9.06,1.4c2.31,0.93,4.17,2.2,5.6,3.8c1.42,1.69,2.44,3.89,3.07,6.6
			c0.62,2.71,0.93,6.29,0.93,10.73v35.85c0,3.73,0.58,6.26,1.73,7.6c1.15,1.33,3.15,2,6,2v2.8c-1.6-0.09-4.02-0.2-7.26-0.33
			c-3.24-0.13-6.42-0.2-9.53-0.2c-3.2,0-6.35,0.07-9.46,0.2c-3.11,0.13-5.46,0.25-7.06,0.33v-2.8c2.4,0,4.06-0.67,5-2
			c0.93-1.33,1.4-3.86,1.4-7.6V65.01c0-2.22-0.18-4.15-0.53-5.8c-0.36-1.64-1.04-2.93-2.07-3.86c-1.02-0.93-2.55-1.4-4.6-1.4
			c-2.31,0-4.44,0.67-6.4,2c-1.96,1.33-3.53,3.18-4.73,5.53c-1.2,2.35-1.8,5-1.8,7.93v37.05c0,3.73,0.49,6.26,1.47,7.6
			c0.98,1.33,2.62,2,4.93,2v2.8c-1.42-0.09-3.62-0.2-6.6-0.33c-2.98-0.13-6.02-0.2-9.13-0.2c-3.38,0-6.84,0.07-10.39,0.2
			c-3.55,0.13-6.22,0.25-8,0.33v-2.8c3.11,0,5.31-0.67,6.6-2c1.29-1.33,1.93-3.86,1.93-7.6V64.47c0-4-0.6-6.95-1.8-8.86
			c-1.2-1.91-3.44-2.87-6.73-2.87v-2.8c2.84,0.27,5.6,0.4,8.26,0.4c3.73,0,7.22-0.15,10.46-0.47c3.24-0.31,6.24-0.78,9-1.4v11.99
			c2.13-4.44,5.02-7.62,8.66-9.53C720.68,49.04,724.68,48.08,729.03,48.08z M769.15,48.08c3.73,0,6.75,0.47,9.06,1.4
			c2.31,0.93,4.17,2.2,5.6,3.8c1.42,1.69,2.44,3.89,3.07,6.6c0.62,2.71,0.93,6.29,0.93,10.73v35.85c0,3.73,0.64,6.26,1.93,7.6
			c1.29,1.33,3.49,2,6.6,2v2.8c-1.69-0.09-4.22-0.2-7.6-0.33c-3.38-0.13-6.71-0.2-10-0.2c-3.2,0-6.35,0.07-9.46,0.2
			c-3.11,0.13-5.46,0.25-7.06,0.33v-2.8c2.4,0,4.06-0.67,5-2c0.93-1.33,1.4-3.86,1.4-7.6V65.01c0-2.22-0.2-4.15-0.6-5.8
			c-0.4-1.64-1.16-2.93-2.27-3.86c-1.11-0.93-2.82-1.4-5.13-1.4c-3.46,0-6.49,1.53-9.06,4.6c-2.58,3.06-3.91,6.82-4,11.26
			l-0.67-8.13c2.4-5.33,5.58-8.93,9.53-10.79C760.37,49.01,764.62,48.08,769.15,48.08z"/>
		<path class="st0" d="M849.64,48.08c3.73,0,6.75,0.47,9.06,1.4c2.31,0.93,4.17,2.2,5.6,3.8c1.42,1.69,2.44,3.89,3.07,6.6
			c0.62,2.71,0.93,6.29,0.93,10.73v35.85c0,3.73,0.58,6.26,1.73,7.6c1.15,1.33,3.15,2,6,2v2.8c-1.6-0.09-4.02-0.2-7.26-0.33
			c-3.24-0.13-6.42-0.2-9.53-0.2c-3.2,0-6.35,0.07-9.46,0.2c-3.11,0.13-5.46,0.25-7.06,0.33v-2.8c2.4,0,4.06-0.67,5-2
			c0.93-1.33,1.4-3.86,1.4-7.6V65.01c0-2.22-0.18-4.15-0.53-5.8c-0.36-1.64-1.04-2.93-2.07-3.86c-1.02-0.93-2.55-1.4-4.6-1.4
			c-2.31,0-4.44,0.67-6.4,2c-1.96,1.33-3.53,3.18-4.73,5.53c-1.2,2.35-1.8,5-1.8,7.93v37.05c0,3.73,0.49,6.26,1.47,7.6
			c0.98,1.33,2.62,2,4.93,2v2.8c-1.42-0.09-3.62-0.2-6.6-0.33c-2.98-0.13-6.02-0.2-9.13-0.2c-3.38,0-6.84,0.07-10.39,0.2
			c-3.55,0.13-6.22,0.25-8,0.33v-2.8c3.11,0,5.31-0.67,6.6-2c1.29-1.33,1.93-3.86,1.93-7.6V64.47c0-4-0.6-6.95-1.8-8.86
			c-1.2-1.91-3.44-2.87-6.73-2.87v-2.8c2.84,0.27,5.6,0.4,8.26,0.4c3.73,0,7.22-0.15,10.46-0.47c3.24-0.31,6.24-0.78,9-1.4v11.99
			c2.13-4.44,5.02-7.62,8.66-9.53C841.29,49.04,845.29,48.08,849.64,48.08z M889.75,48.08c3.73,0,6.75,0.47,9.06,1.4
			c2.31,0.93,4.17,2.2,5.6,3.8c1.42,1.69,2.44,3.89,3.07,6.6c0.62,2.71,0.93,6.29,0.93,10.73v35.85c0,3.73,0.64,6.26,1.93,7.6
			c1.29,1.33,3.49,2,6.6,2v2.8c-1.69-0.09-4.22-0.2-7.6-0.33c-3.38-0.13-6.71-0.2-10-0.2c-3.2,0-6.35,0.07-9.46,0.2
			c-3.11,0.13-5.46,0.25-7.06,0.33v-2.8c2.4,0,4.06-0.67,5-2c0.93-1.33,1.4-3.86,1.4-7.6V65.01c0-2.22-0.2-4.15-0.6-5.8
			c-0.4-1.64-1.16-2.93-2.27-3.86c-1.11-0.93-2.82-1.4-5.13-1.4c-3.46,0-6.49,1.53-9.06,4.6c-2.58,3.06-3.91,6.82-4,11.26
			l-0.67-8.13c2.4-5.33,5.58-8.93,9.53-10.79C880.98,49.01,885.22,48.08,889.75,48.08z"/>
		<path class="st0" d="M956.25,48.08c6.48,0,12.17,1.2,17.06,3.6c4.88,2.4,8.71,6.26,11.46,11.59c2.75,5.33,4.13,12.39,4.13,21.19
			c0,8.8-1.38,15.84-4.13,21.12c-2.75,5.29-6.58,9.13-11.46,11.53c-4.89,2.4-10.57,3.6-17.06,3.6c-6.31,0-11.93-1.2-16.86-3.6
			c-4.93-2.4-8.79-6.24-11.59-11.53c-2.8-5.28-4.2-12.33-4.2-21.12c0-8.8,1.4-15.86,4.2-21.19s6.66-9.2,11.59-11.59
			C944.33,49.28,949.94,48.08,956.25,48.08z M956.25,50.75c-3.55,0-6.53,2.64-8.93,7.93c-2.4,5.29-3.6,13.88-3.6,25.79
			c0,11.91,1.2,20.48,3.6,25.72c2.4,5.24,5.37,7.86,8.93,7.86c3.64,0,6.64-2.62,9-7.86c2.35-5.24,3.53-13.81,3.53-25.72
			c0-11.9-1.18-20.5-3.53-25.79C962.89,53.39,959.9,50.75,956.25,50.75z"/>
		<path class="st0" d="M1022.49,14.63v101.55c-2.22-0.35-4.49-0.35-6.8,0c-2.31,0.36-4.44,0.96-6.4,1.8c-1.96,0.85-3.6,1.84-4.93,3
			l-2-1.2c0.35-1.24,0.6-2.49,0.73-3.73c0.13-1.24,0.2-2.49,0.2-3.73V30.62c0-4-0.6-6.95-1.8-8.86c-1.2-1.91-3.44-2.87-6.73-2.87
			v-2.8c2.84,0.27,5.6,0.4,8.26,0.4c3.64,0,7.11-0.15,10.39-0.47C1016.71,15.72,1019.73,15.25,1022.49,14.63z M1042.88,48.08
			c6.93,0,12.68,2.82,17.26,8.46c4.58,5.64,6.86,14.33,6.86,26.05c0,9.24-1.4,16.66-4.2,22.26c-2.8,5.6-6.51,9.64-11.13,12.13
			c-4.62,2.49-9.69,3.73-15.19,3.73c-3.64,0-7.02-0.62-10.13-1.87c-3.11-1.24-5.78-3.29-8-6.13l1.87-0.67
			c1.6,1.96,3.49,3.42,5.66,4.4c2.18,0.98,4.33,1.47,6.46,1.47c4.88,0,8.53-2.75,10.93-8.26c2.4-5.51,3.6-13.9,3.6-25.19
			c0-7.64-0.47-13.7-1.4-18.19c-0.93-4.49-2.29-7.68-4.06-9.6c-1.78-1.91-3.91-2.87-6.4-2.87c-3.11,0-5.95,1.27-8.53,3.8
			c-2.58,2.53-4.04,6.06-4.4,10.59l-0.67-4.66c1.6-5.06,4.31-8.91,8.13-11.53C1033.37,49.39,1037.81,48.08,1042.88,48.08z"/>
		<path class="st0" d="M1102.98,48.48v57.97c0,3.73,0.64,6.26,1.93,7.6c1.29,1.33,3.49,2,6.6,2v2.8c-1.69-0.09-4.2-0.2-7.53-0.33
			c-3.33-0.13-6.73-0.2-10.19-0.2s-6.98,0.07-10.53,0.2c-3.55,0.13-6.22,0.25-8,0.33v-2.8c3.11,0,5.31-0.67,6.6-2
			c1.29-1.33,1.93-3.86,1.93-7.6V64.47c0-4-0.6-6.95-1.8-8.86c-1.2-1.91-3.44-2.87-6.73-2.87v-2.8c2.84,0.27,5.6,0.4,8.26,0.4
			c3.73,0,7.22-0.15,10.46-0.47C1097.23,49.57,1100.22,49.1,1102.98,48.48z M1092.58,15.56c3.73,0,6.68,0.91,8.86,2.73
			c2.18,1.82,3.26,4.33,3.26,7.53c0,3.2-1.09,5.71-3.26,7.53c-2.18,1.82-5.13,2.73-8.86,2.73s-6.69-0.91-8.86-2.73
			c-2.18-1.82-3.27-4.33-3.27-7.53c0-3.2,1.09-5.71,3.27-7.53C1085.9,16.48,1088.85,15.56,1092.58,15.56z"/>
		<path class="st0" d="M1144.42,14.5v91.95c0,3.73,0.64,6.26,1.93,7.6c1.29,1.33,3.49,2,6.6,2v2.8c-1.69-0.09-4.22-0.2-7.6-0.33
			c-3.38-0.13-6.8-0.2-10.26-0.2c-3.47,0-6.95,0.07-10.46,0.2c-3.51,0.13-6.15,0.25-7.93,0.33v-2.8c3.11,0,5.31-0.67,6.6-2
			c1.29-1.33,1.93-3.86,1.93-7.6V30.49c0-4-0.6-6.95-1.8-8.86c-1.2-1.91-3.44-2.87-6.73-2.87v-2.8c2.84,0.27,5.6,0.4,8.26,0.4
			c3.64,0,7.11-0.15,10.39-0.47C1138.65,15.59,1141.67,15.12,1144.42,14.5z"/>
		<path class="st0" d="M1186.4,48.48v57.97c0,3.73,0.64,6.26,1.93,7.6c1.29,1.33,3.49,2,6.6,2v2.8c-1.69-0.09-4.2-0.2-7.53-0.33
			c-3.33-0.13-6.73-0.2-10.19-0.2s-6.98,0.07-10.53,0.2c-3.55,0.13-6.22,0.25-8,0.33v-2.8c3.11,0,5.31-0.67,6.6-2
			c1.29-1.33,1.93-3.86,1.93-7.6V64.47c0-4-0.6-6.95-1.8-8.86c-1.2-1.91-3.44-2.87-6.73-2.87v-2.8c2.84,0.27,5.6,0.4,8.26,0.4
			c3.73,0,7.22-0.15,10.46-0.47C1180.65,49.57,1183.65,49.1,1186.4,48.48z M1176.01,15.56c3.73,0,6.68,0.91,8.86,2.73
			c2.18,1.82,3.26,4.33,3.26,7.53c0,3.2-1.09,5.71-3.26,7.53c-2.18,1.82-5.13,2.73-8.86,2.73s-6.69-0.91-8.86-2.73
			c-2.18-1.82-3.27-4.33-3.27-7.53c0-3.2,1.09-5.71,3.27-7.53C1169.32,16.48,1172.27,15.56,1176.01,15.56z"/>
		<path class="st0" d="M1235.04,48.08c7.82,0,13.95,2.31,18.39,6.93c4.44,4.62,6.66,12.17,6.66,22.66h-43.84l-0.27-2.53h27.32
			c0.09-4.35-0.18-8.37-0.8-12.06c-0.62-3.69-1.6-6.64-2.93-8.86c-1.33-2.22-3.11-3.33-5.33-3.33c-3.11,0-5.75,1.96-7.93,5.86
			c-2.18,3.91-3.49,10.4-3.93,19.46l0.4,0.8c-0.09,1.07-0.16,2.18-0.2,3.33c-0.05,1.16-0.07,2.35-0.07,3.6
			c0,6.13,0.87,11.11,2.6,14.93c1.73,3.82,3.93,6.6,6.6,8.33c2.67,1.73,5.37,2.6,8.13,2.6c2.67,0,5.57-0.67,8.73-2
			c3.15-1.33,6.11-4.22,8.86-8.66l2.4,0.8c-1.07,3.38-2.75,6.66-5.06,9.86c-2.31,3.2-5.24,5.82-8.8,7.86
			c-3.55,2.04-7.82,3.06-12.79,3.06c-6.04,0-11.37-1.29-15.99-3.86c-4.62-2.58-8.24-6.48-10.86-11.73
			c-2.62-5.24-3.93-11.9-3.93-19.99c0-8.26,1.4-15.15,4.2-20.66c2.8-5.51,6.66-9.62,11.59-12.33
			C1223.11,49.44,1228.73,48.08,1235.04,48.08z"/>
		<path class="st0" d="M1313.67,48.08c2.84,0,5.15,0.6,6.93,1.8c1.78,1.2,3.09,2.73,3.93,4.6c0.84,1.87,1.27,3.82,1.27,5.86
			c0,3.29-0.96,5.98-2.87,8.06c-1.91,2.09-4.42,3.13-7.53,3.13c-3.11,0-5.53-0.78-7.26-2.33c-1.73-1.55-2.6-3.62-2.6-6.2
			c0-2.49,0.55-4.55,1.67-6.2c1.11-1.64,2.51-3.04,4.2-4.2c-1.25-0.35-2.49-0.31-3.73,0.13c-2.31,0.36-4.38,1.45-6.2,3.27
			c-1.82,1.82-3.27,3.98-4.33,6.46c-1.07,2.49-1.6,4.93-1.6,7.33v35.32c0,4.26,1.04,7.15,3.13,8.66c2.09,1.51,5.22,2.27,9.4,2.27
			v2.8c-2.04-0.09-5.02-0.2-8.93-0.33c-3.91-0.13-8-0.2-12.26-0.2c-3.55,0-7.15,0.07-10.79,0.2c-3.64,0.13-6.4,0.25-8.26,0.33v-2.8
			c3.11,0,5.31-0.67,6.6-2c1.29-1.33,1.93-3.86,1.93-7.6V64.47c0-4-0.6-6.95-1.8-8.86c-1.2-1.91-3.44-2.87-6.73-2.87v-2.8
			c2.84,0.27,5.6,0.4,8.26,0.4c3.73,0,7.22-0.15,10.46-0.47c3.24-0.31,6.24-0.78,9-1.4v12.39c1.07-2.4,2.49-4.57,4.26-6.53
			c1.78-1.95,3.82-3.49,6.13-4.6C1308.25,48.64,1310.82,48.08,1313.67,48.08z"/>
	</g>
</g>
</svg>
