<?xml version="1.0" standalone="no"?>
<!DOCTYPE svg PUBLIC "-//W3C//DTD SVG 20010904//EN"
 "http://www.w3.org/TR/2001/REC-SVG-20010904/DTD/svg10.dtd">
<svg version="1.0" xmlns="http://www.w3.org/2000/svg"
 width="180.000000pt" height="180.000000pt" viewBox="0 0 180.000000 180.000000"
 preserveAspectRatio="xMidYMid meet">

<g transform="translate(0.000000,180.000000) scale(0.100000,-0.100000)"
fill="#000000" stroke="none">
<path d="M394 1480 c-143 -145 -281 -286 -307 -312 -29 -29 -45 -53 -41 -60 5
-8 20 2 43 29 20 22 46 43 59 47 12 4 30 22 39 39 8 18 104 122 212 231 108
109 204 207 214 217 38 41 40 40 448 -382 99 -103 161 -159 168 -154 8 4 -47
67 -158 178 -93 95 -226 230 -294 302 l-124 129 -259 -264z"/>
<path d="M888 1658 c47 -50 301 -311 429 -440 75 -76 140 -135 145 -132 5 4
-37 54 -94 113 -58 58 -187 190 -288 294 -101 103 -190 187 -198 187 -12 0
-11 -5 6 -22z"/>
<path d="M1110 1634 c0 -4 30 -37 68 -75 37 -38 166 -170 288 -294 121 -124
226 -225 233 -225 20 0 -9 32 -297 325 -238 243 -292 293 -292 269z"/>
<path d="M533 1334 c-3 -9 -2 -28 3 -43 8 -21 17 -27 46 -29 33 -3 38 0 44 22
11 47 2 61 -44 64 -32 2 -44 -1 -49 -14z"/>
<path d="M706 1337 c-14 -10 -15 -18 -7 -40 19 -48 80 -46 96 4 14 42 -48 66
-89 36z"/>
<path d="M570 1190 c-31 -4 -35 -9 -38 -38 -4 -44 10 -59 56 -58 37 1 37 1 40
47 3 52 -4 58 -58 49z"/>
<path d="M707 1183 c-4 -3 -7 -21 -7 -40 0 -27 5 -35 26 -43 33 -13 40 -13 56
4 9 8 13 27 10 50 -4 34 -6 36 -41 36 -21 0 -41 -3 -44 -7z"/>
<path d="M190 275 c0 -8 5 -15 10 -15 6 0 10 7 10 15 0 8 -4 15 -10 15 -5 0
-10 -7 -10 -15z"/>
</g>
</svg>
