<svg xmlns="http://www.w3.org/2000/svg" width="14" height="14" viewBox="0 0 14 14">
  <defs>
    <style>
      .cls-1 {
        fill: #797979;
        fill-rule: evenodd;
      }
    </style>
  </defs>
  <path id="telephone" class="cls-1" d="M524.376,3527.64c3.264,3.27,6.186,4.26,6.592,4.32a2.107,2.107,0,0,0,2.04-.78c1.131-1.14,1.245-1.73.622-2.36a16.9,16.9,0,0,0-2.591-1.81,0.924,0.924,0,0,0-1.081.05c-0.3.21-.653,0.48-0.978,0.71a0.959,0.959,0,0,1-1.164.06,11.726,11.726,0,0,1-2-1.63,11.46,11.46,0,0,1-1.625-2.01,0.968,0.968,0,0,1,.058-1.16c0.235-.33.5-0.68,0.715-0.98a0.946,0.946,0,0,0,.047-1.09,16.771,16.771,0,0,0-1.808-2.59c-0.623-.63-1.218-0.51-2.349.62a2.085,2.085,0,0,0-.778,2.05c0.058,0.4,1.04,3.33,4.3,6.6h0Z" transform="translate(-520 -3518)"/>
</svg>
