<?xml version="1.0" encoding="utf-8"?>
<!-- Generator: Adobe Illustrator 24.0.1, SVG Export Plug-In . SVG Version: 6.00 Build 0)  -->
<svg version="1.1" id="Calque_1" xmlns="http://www.w3.org/2000/svg" xmlns:xlink="http://www.w3.org/1999/xlink" x="0px" y="0px"
	 viewBox="0 0 1342 156" style="enable-background:new 0 0 1342 156;" xml:space="preserve">
<style type="text/css">
	.st0{fill:#E2554B;}
</style>
<g>
	<g>
		<path d="M98.29,24.49c-0.36,3.38-0.6,6.64-0.73,9.79c-0.13,3.15-0.2,5.58-0.2,7.26c0,2.13,0.04,4.13,0.13,6
			c0.09,1.87,0.18,3.51,0.27,4.93h-3.07c-0.62-6.22-1.47-11.13-2.53-14.73c-1.07-3.6-2.93-6.2-5.6-7.8c-2.67-1.6-6.8-2.4-12.39-2.4
			h-8.4c-3.02,0-5.31,0.25-6.86,0.73c-1.56,0.49-2.6,1.51-3.13,3.07c-0.53,1.56-0.8,3.98-0.8,7.26v66.1c0,3.2,0.33,5.6,1,7.2
			c0.67,1.6,1.98,2.67,3.93,3.2c1.95,0.53,4.8,0.89,8.53,1.07v2.67c-2.31-0.18-5.24-0.29-8.8-0.33c-3.55-0.04-7.15-0.07-10.79-0.07
			c-3.46,0-6.71,0.02-9.73,0.07c-3.02,0.05-5.46,0.16-7.33,0.33v-2.67c3.02-0.18,5.31-0.53,6.86-1.07c1.55-0.53,2.6-1.6,3.13-3.2
			c0.53-1.6,0.8-4,0.8-7.2v-66.1c0-3.29-0.27-5.71-0.8-7.26c-0.53-1.55-1.58-2.62-3.13-3.2c-1.56-0.58-3.84-0.91-6.86-1v-2.67
			c4.35,0.09,9.02,0.18,13.99,0.27c4.97,0.09,9.66,0.13,14.06,0.13s7.93,0,10.59,0c4.09,0,8.73-0.02,13.93-0.07
			C89.56,24.78,94.2,24.67,98.29,24.49z M77.63,71.4v2.67H50.98V71.4H77.63z M80.17,53.81c-0.36,5.06-0.51,8.93-0.47,11.59
			c0.04,2.67,0.07,5.11,0.07,7.33c0,2.22,0.04,4.66,0.13,7.33c0.09,2.67,0.31,6.53,0.67,11.59H77.5c-0.36-2.84-0.78-5.62-1.27-8.33
			c-0.49-2.71-1.56-4.93-3.2-6.66c-1.65-1.73-4.42-2.6-8.33-2.6V71.4c3.91,0,6.64-1.02,8.2-3.07c1.55-2.04,2.55-4.44,3-7.2
			c0.44-2.75,0.84-5.2,1.2-7.33H80.17z"/>
		<path d="M138.53,48.35c5.68,0,10.79,1.25,15.33,3.73c4.53,2.49,8.15,6.4,10.86,11.73c2.71,5.33,4.06,12.26,4.06,20.79
			c0,8.53-1.36,15.44-4.06,20.72c-2.71,5.29-6.33,9.17-10.86,11.66s-9.64,3.73-15.33,3.73c-5.6,0-10.68-1.25-15.26-3.73
			c-4.58-2.49-8.22-6.37-10.93-11.66c-2.71-5.29-4.06-12.19-4.06-20.72c0-8.53,1.35-15.46,4.06-20.79
			c2.71-5.33,6.35-9.24,10.93-11.73C127.85,49.59,132.94,48.35,138.53,48.35z M138.53,51.01c-5.06,0-9.22,2.62-12.46,7.86
			c-3.24,5.24-4.86,13.82-4.86,25.72c0,11.91,1.62,20.46,4.86,25.65c3.24,5.2,7.4,7.8,12.46,7.8s9.22-2.6,12.46-7.8
			c3.24-5.2,4.86-13.75,4.86-25.65c0-11.9-1.62-20.48-4.86-25.72C147.75,53.63,143.6,51.01,138.53,51.01z"/>
		<path d="M223.69,48.35c3.38,0,6.2,0.45,8.46,1.33c2.27,0.89,4.15,2.13,5.66,3.73c1.69,1.78,2.89,4,3.6,6.66
			c0.71,2.67,1.07,6.26,1.07,10.79v35.58c0,3.73,0.78,6.26,2.33,7.6c1.55,1.33,4.15,2,7.8,2v2.8c-1.51-0.09-3.82-0.2-6.93-0.33
			c-3.11-0.13-6.13-0.2-9.06-0.2c-2.93,0-5.8,0.07-8.6,0.2s-4.91,0.25-6.33,0.33v-2.8c3.2,0,5.46-0.67,6.8-2c1.33-1.33,2-3.86,2-7.6
			V67.94c0-2.75-0.22-5.28-0.67-7.6c-0.45-2.31-1.45-4.17-3-5.6c-1.56-1.42-3.93-2.13-7.13-2.13c-5.6,0-10.11,2.33-13.53,7
			c-3.42,4.66-5.13,10.42-5.13,17.26v29.58c0,3.73,0.67,6.26,2,7.6c1.33,1.33,3.6,2,6.8,2v2.8c-1.42-0.09-3.53-0.2-6.33-0.33
			c-2.8-0.13-5.66-0.2-8.6-0.2c-2.93,0-5.95,0.07-9.06,0.2c-3.11,0.13-5.42,0.25-6.93,0.33v-2.8c3.64,0,6.24-0.67,7.8-2
			c1.55-1.33,2.33-3.86,2.33-7.6V64.74c0-4-0.71-6.95-2.13-8.86c-1.42-1.91-4.09-2.87-8-2.87v-2.8c2.84,0.27,5.6,0.4,8.26,0.4
			c2.58,0,5.04-0.15,7.4-0.47c2.35-0.31,4.51-0.78,6.46-1.4v15.73c2.31-6.04,5.53-10.24,9.66-12.59
			C214.83,49.53,219.16,48.35,223.69,48.35z"/>
		<path d="M279.93,28.09v22.26h19.72v2.67h-19.72v51.57c0,4.18,0.75,7.11,2.27,8.8c1.51,1.69,3.6,2.53,6.26,2.53
			c2.67,0,4.97-1.09,6.93-3.27c1.95-2.18,3.64-5.84,5.06-10.99l2.67,0.67c-0.89,5.15-2.64,9.51-5.26,13.06
			c-2.62,3.55-6.64,5.33-12.06,5.33c-3.02,0-5.51-0.38-7.46-1.13c-1.96-0.75-3.69-1.84-5.2-3.27c-1.96-2.04-3.31-4.49-4.06-7.33
			c-0.76-2.84-1.13-6.62-1.13-11.33V53.01h-12.79v-2.67h12.79V29.96c2.22-0.09,4.35-0.27,6.4-0.53
			C276.37,29.16,278.24,28.71,279.93,28.09z"/>
		<path d="M338.03,48.35c7.82,0,13.93,2.38,18.32,7.13c4.4,4.75,6.6,12.15,6.6,22.19h-47.04l-0.13-2.53h34.38
			c0.18-4.35-0.18-8.37-1.07-12.06c-0.89-3.69-2.29-6.64-4.2-8.86c-1.91-2.22-4.38-3.33-7.4-3.33c-4.09,0-7.71,2.04-10.86,6.13
			c-3.15,4.09-5.04,10.57-5.66,19.46l0.4,0.53c-0.18,1.33-0.31,2.8-0.4,4.4c-0.09,1.6-0.13,3.2-0.13,4.8
			c0,6.04,0.98,11.24,2.93,15.59c1.95,4.35,4.51,7.66,7.66,9.93c3.15,2.27,6.42,3.4,9.8,3.4c4,0,7.68-0.98,11.06-2.93
			c3.38-1.95,6.22-5.42,8.53-10.39l2.67,1.07c-0.98,2.93-2.58,5.78-4.8,8.53c-2.22,2.75-5.02,5-8.4,6.73
			c-3.38,1.73-7.29,2.6-11.73,2.6c-6.4,0-11.88-1.47-16.46-4.4c-4.58-2.93-8.09-7-10.53-12.19c-2.44-5.2-3.66-11.17-3.66-17.92
			c0-7.82,1.24-14.55,3.73-20.19c2.49-5.64,6-10,10.53-13.06C326.7,49.88,331.99,48.35,338.03,48.35z"/>
		<path d="M417.86,48.35c3.38,0,6.2,0.45,8.46,1.33c2.27,0.89,4.15,2.13,5.66,3.73c1.69,1.78,2.89,4,3.6,6.66
			c0.71,2.67,1.07,6.26,1.07,10.79v35.58c0,3.73,0.78,6.26,2.33,7.6c1.55,1.33,4.15,2,7.8,2v2.8c-1.51-0.09-3.82-0.2-6.93-0.33
			c-3.11-0.13-6.13-0.2-9.06-0.2c-2.93,0-5.8,0.07-8.6,0.2s-4.91,0.25-6.33,0.33v-2.8c3.2,0,5.46-0.67,6.8-2c1.33-1.33,2-3.86,2-7.6
			V67.94c0-2.75-0.22-5.28-0.67-7.6c-0.45-2.31-1.45-4.17-3-5.6c-1.56-1.42-3.93-2.13-7.13-2.13c-5.6,0-10.11,2.33-13.53,7
			c-3.42,4.66-5.13,10.42-5.13,17.26v29.58c0,3.73,0.67,6.26,2,7.6c1.33,1.33,3.6,2,6.8,2v2.8c-1.42-0.09-3.53-0.2-6.33-0.33
			c-2.8-0.13-5.66-0.2-8.6-0.2c-2.93,0-5.95,0.07-9.06,0.2c-3.11,0.13-5.42,0.25-6.93,0.33v-2.8c3.64,0,6.24-0.67,7.8-2
			c1.55-1.33,2.33-3.86,2.33-7.6V64.74c0-4-0.71-6.95-2.13-8.86c-1.42-1.91-4.09-2.87-8-2.87v-2.8c2.84,0.27,5.6,0.4,8.26,0.4
			c2.58,0,5.04-0.15,7.4-0.47c2.35-0.31,4.51-0.78,6.46-1.4v15.73c2.31-6.04,5.53-10.24,9.66-12.59
			C408.99,49.53,413.33,48.35,417.86,48.35z"/>
		<path d="M470.5,119.78c-5.78,0-9.97-1.44-12.59-4.33c-2.62-2.89-3.93-6.73-3.93-11.53c0-3.73,0.91-6.82,2.73-9.26
			c1.82-2.44,4.15-4.44,7-6c2.84-1.55,5.84-2.89,9-4c3.15-1.11,6.15-2.2,9-3.27c2.84-1.07,5.17-2.27,7-3.6
			c1.82-1.33,2.73-3.02,2.73-5.06v-8.26c0-3.73-0.56-6.57-1.67-8.53c-1.11-1.95-2.6-3.27-4.46-3.93c-1.87-0.67-3.95-1-6.26-1
			c-2.22,0-4.6,0.31-7.13,0.93c-2.53,0.62-4.55,1.91-6.06,3.86c1.69,0.36,3.15,1.25,4.4,2.67c1.24,1.42,1.87,3.24,1.87,5.46
			c0,2.22-0.71,3.98-2.13,5.26c-1.42,1.29-3.24,1.93-5.46,1.93c-2.58,0-4.46-0.82-5.66-2.47c-1.2-1.64-1.8-3.49-1.8-5.53
			c0-2.31,0.58-4.18,1.73-5.6c1.15-1.42,2.62-2.75,4.4-4c2.04-1.42,4.69-2.64,7.93-3.67c3.24-1.02,6.91-1.53,10.99-1.53
			c3.64,0,6.75,0.42,9.33,1.27c2.58,0.85,4.71,2.07,6.4,3.67c2.31,2.13,3.82,4.73,4.53,7.8c0.71,3.07,1.07,6.73,1.07,10.99v37.05
			c0,2.13,0.31,3.71,0.93,4.73c0.62,1.02,1.69,1.53,3.2,1.53c1.24,0,2.33-0.27,3.26-0.8c0.93-0.53,1.84-1.2,2.73-2l1.47,2.27
			c-1.87,1.42-3.64,2.6-5.33,3.53c-1.69,0.93-3.95,1.4-6.8,1.4c-4.62,0-7.69-1.2-9.2-3.6c-1.51-2.4-2.27-5.15-2.27-8.26
			c-2.84,4.71-6.06,7.86-9.66,9.46C478.16,118.98,474.4,119.78,470.5,119.78z M476.36,114.45c2.67,0,5.28-0.78,7.86-2.33
			c2.58-1.55,4.97-4.15,7.2-7.8V78.2c-1.33,1.96-3.4,3.51-6.2,4.66c-2.8,1.16-5.69,2.42-8.66,3.8c-2.98,1.38-5.53,3.24-7.66,5.6
			c-2.13,2.35-3.2,5.71-3.2,10.06c0,4.09,1.02,7.13,3.07,9.13C470.81,113.45,473.34,114.45,476.36,114.45z"/>
		<path d="M580.97,50.21v2.67c-1.69,0.18-3.24,0.93-4.66,2.27c-1.42,1.33-2.75,3.69-4,7.06l-21.86,57.31h-2.27l-24.52-59.04
			c-1.69-3.46-3.35-5.57-5-6.33c-1.65-0.75-3-1.13-4.06-1.13v-2.8c1.95,0.27,4,0.47,6.13,0.6s4.44,0.2,6.93,0.2
			c2.75,0,5.66-0.09,8.73-0.27c3.07-0.18,5.93-0.35,8.6-0.53v2.8c-2.22,0-4.2,0.16-5.93,0.47c-1.73,0.31-2.82,1.25-3.27,2.8
			c-0.45,1.56,0.09,4.2,1.6,7.93l16.39,40.65l-0.8,0.27l15.19-39.71c1.69-4.44,1.87-7.55,0.53-9.33c-1.33-1.78-4.35-2.84-9.06-3.2
			v-2.67c2.31,0.09,4.24,0.18,5.8,0.27c1.55,0.09,3.35,0.13,5.4,0.13c2.04,0,3.89-0.04,5.53-0.13
			C578.02,50.39,579.55,50.3,580.97,50.21z M550.45,119.51l-4.53,11.59c-1.69,4.35-3.6,7.46-5.73,9.33
			c-1.42,1.33-3.11,2.24-5.06,2.73c-1.96,0.49-3.73,0.73-5.33,0.73c-1.69,0-3.22-0.31-4.6-0.93c-1.38-0.62-2.47-1.53-3.27-2.73
			c-0.8-1.2-1.2-2.64-1.2-4.33c0-2.13,0.62-3.84,1.87-5.13c1.24-1.29,2.98-1.93,5.2-1.93c1.87,0,3.47,0.53,4.8,1.6s2,2.62,2,4.66
			c0,1.51-0.36,2.75-1.07,3.73c-0.71,0.98-1.56,1.73-2.53,2.27c0.18,0.09,0.33,0.13,0.47,0.13s0.24,0,0.33,0
			c2.4,0,4.53-0.82,6.4-2.47c1.87-1.65,3.51-4.29,4.93-7.93l4.8-12.39L550.45,119.51z"/>
		<path class="st0" d="M655.07,24.49v2.67c-3.02,0.09-5.31,0.42-6.86,1c-1.56,0.58-2.6,1.65-3.13,3.2c-0.53,1.56-0.8,3.98-0.8,7.26
			v66.1c0,3.2,0.27,5.6,0.8,7.2c0.53,1.6,1.58,2.67,3.13,3.2c1.55,0.53,3.84,0.89,6.86,1.07v2.67c-2.04-0.18-4.6-0.29-7.66-0.33
			c-3.06-0.04-6.15-0.07-9.26-0.07c-3.46,0-6.71,0.02-9.73,0.07c-3.02,0.05-5.46,0.16-7.33,0.33v-2.67
			c3.02-0.18,5.31-0.53,6.86-1.07c1.55-0.53,2.6-1.6,3.13-3.2c0.53-1.6,0.8-4,0.8-7.2v-66.1c0-3.29-0.27-5.71-0.8-7.26
			c-0.53-1.55-1.58-2.62-3.13-3.2c-1.56-0.58-3.85-0.91-6.86-1v-2.67c1.87,0.09,4.31,0.18,7.33,0.27c3.02,0.09,6.26,0.13,9.73,0.13
			c3.11,0,6.2-0.04,9.26-0.13C650.47,24.67,653.02,24.58,655.07,24.49z"/>
		<path class="st0" d="M708.51,48.35c3.11,0,5.82,0.45,8.13,1.33c2.31,0.89,4.22,2.13,5.73,3.73c1.69,1.78,2.84,4.09,3.46,6.93
			c0.62,2.84,0.93,6.35,0.93,10.53v35.58c0,3.73,0.78,6.26,2.33,7.6c1.55,1.33,4.15,2,7.8,2v2.8c-1.51-0.09-3.82-0.2-6.93-0.33
			c-3.11-0.13-6.13-0.2-9.06-0.2c-2.93,0-5.8,0.07-8.6,0.2c-2.8,0.13-4.91,0.25-6.33,0.33v-2.8c3.2,0,5.46-0.67,6.8-2
			c1.33-1.33,2-3.86,2-7.6V67.94c0-2.75-0.18-5.28-0.53-7.6c-0.36-2.31-1.25-4.17-2.67-5.6c-1.42-1.42-3.73-2.13-6.93-2.13
			c-3.47,0-6.55,1.07-9.26,3.2c-2.71,2.13-4.84,5.04-6.4,8.73c-1.56,3.69-2.33,7.8-2.33,12.33v29.58c0,3.73,0.67,6.26,2,7.6
			c1.33,1.33,3.6,2,6.8,2v2.8c-1.42-0.09-3.53-0.2-6.33-0.33c-2.8-0.13-5.66-0.2-8.6-0.2c-2.93,0-5.95,0.07-9.06,0.2
			c-3.11,0.13-5.42,0.25-6.93,0.33v-2.8c3.64,0,6.24-0.67,7.8-2c1.55-1.33,2.33-3.86,2.33-7.6V64.74c0-4-0.71-6.95-2.13-8.86
			c-1.42-1.91-4.09-2.87-8-2.87v-2.8c2.84,0.27,5.6,0.4,8.26,0.4c2.58,0,5.04-0.15,7.4-0.47c2.35-0.31,4.51-0.78,6.46-1.4v15.73
			c2.31-5.77,5.46-9.91,9.46-12.39C700.11,49.59,704.24,48.35,708.51,48.35z M748.62,48.35c3.11,0,5.82,0.45,8.13,1.33
			c2.31,0.89,4.22,2.13,5.73,3.73c1.69,1.78,2.84,4.09,3.46,6.93c0.62,2.84,0.93,6.35,0.93,10.53v35.58c0,3.73,0.78,6.26,2.33,7.6
			c1.55,1.33,4.15,2,7.8,2v2.8c-1.51-0.09-3.82-0.2-6.93-0.33c-3.11-0.13-6.13-0.2-9.06-0.2c-2.93,0-5.8,0.07-8.6,0.2
			c-2.8,0.13-4.91,0.25-6.33,0.33v-2.8c3.2,0,5.46-0.67,6.8-2c1.33-1.33,2-3.86,2-7.6V67.94c0-2.75-0.18-5.28-0.53-7.6
			c-0.36-2.31-1.25-4.17-2.67-5.6c-1.42-1.42-3.73-2.13-6.93-2.13c-5.15,0-9.44,2.31-12.86,6.93c-3.42,4.62-5.13,10.35-5.13,17.19
			l-0.4-12.39c2.4-6.13,5.64-10.33,9.73-12.59C740.18,49.48,744.35,48.35,748.62,48.35z"/>
		<path class="st0" d="M826.84,48.35c3.11,0,5.82,0.45,8.13,1.33c2.31,0.89,4.22,2.13,5.73,3.73c1.69,1.78,2.84,4.09,3.46,6.93
			c0.62,2.84,0.93,6.35,0.93,10.53v35.58c0,3.73,0.78,6.26,2.33,7.6c1.55,1.33,4.15,2,7.8,2v2.8c-1.51-0.09-3.82-0.2-6.93-0.33
			c-3.11-0.13-6.13-0.2-9.06-0.2c-2.93,0-5.8,0.07-8.6,0.2c-2.8,0.13-4.91,0.25-6.33,0.33v-2.8c3.2,0,5.46-0.67,6.8-2
			c1.33-1.33,2-3.86,2-7.6V67.94c0-2.75-0.18-5.28-0.53-7.6c-0.36-2.31-1.25-4.17-2.67-5.6c-1.42-1.42-3.73-2.13-6.93-2.13
			c-3.47,0-6.55,1.07-9.26,3.2c-2.71,2.13-4.84,5.04-6.4,8.73c-1.56,3.69-2.33,7.8-2.33,12.33v29.58c0,3.73,0.67,6.26,2,7.6
			c1.33,1.33,3.6,2,6.8,2v2.8c-1.42-0.09-3.53-0.2-6.33-0.33c-2.8-0.13-5.66-0.2-8.6-0.2c-2.93,0-5.95,0.07-9.06,0.2
			c-3.11,0.13-5.42,0.25-6.93,0.33v-2.8c3.64,0,6.24-0.67,7.8-2c1.55-1.33,2.33-3.86,2.33-7.6V64.74c0-4-0.71-6.95-2.13-8.86
			c-1.42-1.91-4.09-2.87-8-2.87v-2.8c2.84,0.27,5.6,0.4,8.26,0.4c2.58,0,5.04-0.15,7.4-0.47c2.35-0.31,4.51-0.78,6.46-1.4v15.73
			c2.31-5.77,5.46-9.91,9.46-12.39C818.45,49.59,822.58,48.35,826.84,48.35z M866.96,48.35c3.11,0,5.82,0.45,8.13,1.33
			c2.31,0.89,4.22,2.13,5.73,3.73c1.69,1.78,2.84,4.09,3.46,6.93c0.62,2.84,0.93,6.35,0.93,10.53v35.58c0,3.73,0.78,6.26,2.33,7.6
			c1.55,1.33,4.15,2,7.8,2v2.8c-1.51-0.09-3.82-0.2-6.93-0.33c-3.11-0.13-6.13-0.2-9.06-0.2c-2.93,0-5.8,0.07-8.6,0.2
			c-2.8,0.13-4.91,0.25-6.33,0.33v-2.8c3.2,0,5.46-0.67,6.8-2c1.33-1.33,2-3.86,2-7.6V67.94c0-2.75-0.18-5.28-0.53-7.6
			c-0.36-2.31-1.25-4.17-2.67-5.6c-1.42-1.42-3.73-2.13-6.93-2.13c-5.15,0-9.44,2.31-12.86,6.93c-3.42,4.62-5.13,10.35-5.13,17.19
			l-0.4-12.39c2.4-6.13,5.64-10.33,9.73-12.59C858.52,49.48,862.69,48.35,866.96,48.35z"/>
		<path class="st0" d="M933.86,48.35c5.68,0,10.79,1.25,15.33,3.73c4.53,2.49,8.15,6.4,10.86,11.73c2.71,5.33,4.06,12.26,4.06,20.79
			c0,8.53-1.36,15.44-4.06,20.72c-2.71,5.29-6.33,9.17-10.86,11.66s-9.64,3.73-15.33,3.73c-5.6,0-10.68-1.25-15.26-3.73
			c-4.58-2.49-8.22-6.37-10.93-11.66c-2.71-5.29-4.06-12.19-4.06-20.72c0-8.53,1.35-15.46,4.06-20.79
			c2.71-5.33,6.35-9.24,10.93-11.73C923.17,49.59,928.26,48.35,933.86,48.35z M933.86,51.01c-5.06,0-9.22,2.62-12.46,7.86
			c-3.24,5.24-4.86,13.82-4.86,25.72c0,11.91,1.62,20.46,4.86,25.65c3.24,5.2,7.4,7.8,12.46,7.8c5.06,0,9.22-2.6,12.46-7.8
			c3.24-5.2,4.86-13.75,4.86-25.65c0-11.9-1.62-20.48-4.86-25.72C943.07,53.63,938.92,51.01,933.86,51.01z"/>
		<path class="st0" d="M993.03,14.5v97.42c-1.16,0.98-2.33,1.98-3.53,3c-1.2,1.02-2.38,2.02-3.53,3c-1.16,0.98-2.35,2-3.6,3.07
			l-2.27-0.93c0.35-1.24,0.6-2.51,0.73-3.8c0.13-1.29,0.2-2.6,0.2-3.93V30.49c0-4-0.71-6.95-2.13-8.86c-1.42-1.91-4.09-2.87-8-2.87
			v-2.8c2.84,0.27,5.6,0.4,8.26,0.4c2.58,0,5.04-0.15,7.4-0.47C988.92,15.59,991.07,15.12,993.03,14.5z M1013.82,48.35
			c7.28,0,13.33,3,18.12,9c4.8,6,7.2,15.08,7.2,27.25c0,8-1.36,14.68-4.06,20.06c-2.71,5.38-6.33,9.4-10.86,12.06s-9.46,4-14.79,4
			c-4.44,0-8.73-1.27-12.86-3.8c-4.13-2.53-7.22-6.28-9.26-11.26l2.67,1.47c2.22,3.55,4.97,6.2,8.26,7.93
			c3.29,1.73,6.66,2.6,10.13,2.6c5.95,0,10.42-2.69,13.39-8.06c2.98-5.37,4.46-13.7,4.46-24.99c0-7.2-0.58-13.19-1.73-17.99
			c-1.16-4.8-2.93-8.37-5.33-10.73c-2.4-2.35-5.46-3.53-9.2-3.53c-4.09,0-7.89,1.85-11.39,5.53c-3.51,3.69-5.66,9.08-6.46,16.19
			l-1.6-1.87c0.98-7.55,3.62-13.41,7.93-17.59C1002.73,50.44,1007.86,48.35,1013.82,48.35z"/>
		<path class="st0" d="M1071.38,48.75v57.7c0,3.73,0.78,6.26,2.33,7.6c1.55,1.33,4.15,2,7.8,2v2.8c-1.51-0.09-3.8-0.2-6.86-0.33
			s-6.15-0.2-9.26-0.2c-3.02,0-6.09,0.07-9.2,0.2c-3.11,0.13-5.42,0.25-6.93,0.33v-2.8c3.64,0,6.24-0.67,7.8-2
			c1.55-1.33,2.33-3.86,2.33-7.6V64.74c0-4-0.71-6.95-2.13-8.86c-1.42-1.91-4.09-2.87-8-2.87v-2.8c2.84,0.27,5.6,0.4,8.26,0.4
			c2.58,0,5.04-0.15,7.4-0.47C1067.27,49.84,1069.43,49.37,1071.38,48.75z M1064.46,16.9c2.31,0,4.31,0.85,6,2.53
			c1.69,1.69,2.53,3.69,2.53,6c0,2.31-0.84,4.31-2.53,6c-1.69,1.69-3.69,2.53-6,2.53c-2.31,0-4.31-0.84-6-2.53
			c-1.69-1.69-2.53-3.69-2.53-6c0-2.31,0.84-4.31,2.53-6C1060.14,17.74,1062.14,16.9,1064.46,16.9z"/>
		<path class="st0" d="M1109.5,14.36v92.09c0,3.73,0.78,6.26,2.33,7.6c1.55,1.33,4.15,2,7.8,2v2.8c-1.51-0.09-3.8-0.2-6.86-0.33
			s-6.15-0.2-9.26-0.2c-3.02,0-6.09,0.07-9.2,0.2c-3.11,0.13-5.42,0.25-6.93,0.33v-2.8c3.64,0,6.24-0.67,7.8-2
			c1.55-1.33,2.33-3.86,2.33-7.6v-76.1c0-4-0.71-6.95-2.13-8.86c-1.42-1.91-4.09-2.87-8-2.87v-2.8c2.84,0.27,5.6,0.4,8.26,0.4
			c2.58,0,5.04-0.15,7.4-0.47C1105.39,15.45,1107.54,14.99,1109.5,14.36z"/>
		<path class="st0" d="M1148.55,48.75v57.7c0,3.73,0.78,6.26,2.33,7.6c1.55,1.33,4.15,2,7.8,2v2.8c-1.51-0.09-3.8-0.2-6.86-0.33
			s-6.15-0.2-9.26-0.2c-3.02,0-6.09,0.07-9.2,0.2c-3.11,0.13-5.42,0.25-6.93,0.33v-2.8c3.64,0,6.24-0.67,7.8-2
			c1.55-1.33,2.33-3.86,2.33-7.6V64.74c0-4-0.71-6.95-2.13-8.86c-1.42-1.91-4.09-2.87-8-2.87v-2.8c2.84,0.27,5.6,0.4,8.26,0.4
			c2.58,0,5.04-0.15,7.4-0.47C1144.44,49.84,1146.59,49.37,1148.55,48.75z M1141.62,16.9c2.31,0,4.31,0.85,6,2.53
			c1.69,1.69,2.53,3.69,2.53,6c0,2.31-0.84,4.31-2.53,6c-1.69,1.69-3.69,2.53-6,2.53c-2.31,0-4.31-0.84-6-2.53
			c-1.69-1.69-2.53-3.69-2.53-6c0-2.31,0.84-4.31,2.53-6C1137.31,17.74,1139.3,16.9,1141.62,16.9z"/>
		<path class="st0" d="M1197.85,48.35c7.82,0,13.93,2.38,18.32,7.13c4.4,4.75,6.6,12.15,6.6,22.19h-47.04l-0.13-2.53h34.38
			c0.18-4.35-0.18-8.37-1.07-12.06c-0.89-3.69-2.29-6.64-4.2-8.86c-1.91-2.22-4.38-3.33-7.4-3.33c-4.09,0-7.71,2.04-10.86,6.13
			c-3.16,4.09-5.04,10.57-5.66,19.46l0.4,0.53c-0.18,1.33-0.31,2.8-0.4,4.4c-0.09,1.6-0.13,3.2-0.13,4.8
			c0,6.04,0.98,11.24,2.93,15.59c1.95,4.35,4.51,7.66,7.66,9.93c3.15,2.27,6.42,3.4,9.79,3.4c4,0,7.68-0.98,11.06-2.93
			c3.38-1.95,6.22-5.42,8.53-10.39l2.67,1.07c-0.98,2.93-2.58,5.78-4.8,8.53c-2.22,2.75-5.02,5-8.4,6.73
			c-3.38,1.73-7.29,2.6-11.73,2.6c-6.4,0-11.88-1.47-16.46-4.4c-4.58-2.93-8.09-7-10.53-12.19c-2.44-5.2-3.67-11.17-3.67-17.92
			c0-7.82,1.24-14.55,3.73-20.19c2.49-5.64,6-10,10.53-13.06C1186.53,49.88,1191.81,48.35,1197.85,48.35z"/>
		<path class="st0" d="M1274.35,48.35c2.4,0,4.51,0.49,6.33,1.47c1.82,0.98,3.24,2.24,4.26,3.8c1.02,1.56,1.53,3.31,1.53,5.26
			c0,2.22-0.69,4.18-2.07,5.86c-1.38,1.69-3.22,2.53-5.53,2.53c-1.87,0-3.51-0.6-4.93-1.8c-1.42-1.2-2.13-2.91-2.13-5.13
			c0-1.69,0.47-3.13,1.4-4.33c0.93-1.2,1.98-2.15,3.13-2.87c-0.62-0.89-1.56-1.33-2.8-1.33c-3.73,0-6.98,1.4-9.73,4.2
			c-2.75,2.8-4.91,6.15-6.46,10.06c-1.56,3.91-2.33,7.51-2.33,10.79v28.25c0,4.35,1.27,7.26,3.8,8.73s5.97,2.2,10.33,2.2v2.8
			c-2.04-0.09-4.93-0.2-8.66-0.33s-7.69-0.2-11.86-0.2c-3.02,0-6.02,0.07-9,0.2c-2.98,0.13-5.22,0.25-6.73,0.33v-2.8
			c3.64,0,6.24-0.67,7.8-2c1.55-1.33,2.33-3.86,2.33-7.6V64.74c0-4-0.71-6.95-2.13-8.86c-1.42-1.91-4.09-2.87-8-2.87v-2.8
			c2.84,0.27,5.6,0.4,8.26,0.4c2.58,0,5.04-0.15,7.4-0.47c2.35-0.31,4.51-0.78,6.46-1.4v16.66c0.98-2.58,2.38-5.17,4.2-7.8
			c1.82-2.62,4.02-4.82,6.6-6.6C1268.4,49.24,1271.24,48.35,1274.35,48.35z"/>
	</g>
</g>
</svg>
